<?xml version="1.0" encoding="utf-8"?>
<!-- Generator: Adobe Illustrator 19.0.0, SVG Export Plug-In . SVG Version: 6.00 Build 0)  -->
<svg version="1.1" id="Capa_1" xmlns="http://www.w3.org/2000/svg" xmlns:xlink="http://www.w3.org/1999/xlink" x="0px" y="0px"
	 viewBox="-455 256 49 49" style="enable-background:new -455 256 49 49;" xml:space="preserve">
<style type="text/css">
	.st0{fill:#C9C9C9;}
</style>
<g>
	<path class="st0" d="M-409,274.7c0,0-0.1-0.1-0.1-0.1l-1.7-1.7c1.4-0.3,3-1.5,3-2.7c0-1.4-2-1.9-3.7-1.9c-1.8,0-2,1.2-2,2.1
		l-4.4-4.3c-0.9-0.9-2.6-1.6-3.9-1.6h-8.6h0h-8.6c-1.3,0-3,0.7-3.9,1.6l-4.4,4.3c0-0.9-0.2-2.1-2-2.1c-1.7,0-3.7,0.5-3.7,1.9
		c0,1.2,1.5,2.4,3,2.7l-1.7,1.7c0,0-0.1,0.1-0.1,0.1c-1.8,1.6-3,4.5-3,6.6v6.3c0,1.5,0.6,2.9,1.6,3.9v2.4c0,1.4,1.2,2.6,2.7,2.6h3.2
		c1.5,0,2.7-1.2,2.7-2.6v-0.6h14.4h0h14.4v0.6c0,1.4,1.2,2.6,2.7,2.6h3.2c1.5,0,2.7-1.2,2.7-2.6v-2.4c1-1,1.6-2.4,1.6-3.9v-6.3
		C-406,279.2-407.2,276.3-409,274.7z M-441.4,268c0.6-0.5,1.7-0.9,2.3-0.9h8.6h0h8.6c0.5,0,1.6,0.4,2.3,0.9l5.8,5.6h-16.7h0h-16.7
		L-441.4,268z M-453,280.3c0-1.5,1.2-2.8,2.7-2.8c1.5,0,6.4,2.9,6.4,4.4c0,1.5-4.9,1.2-6.4,1.2C-451.8,283.1-453,281.9-453,280.3z
		 M-444.9,290.6h-0.5h-0.5l-3.1,0c-0.8-0.3-1.4-0.6-1.9-0.9c-0.2-0.2-0.4-0.3-0.5-0.5c-0.1-0.2-0.2-0.3-0.3-0.5
		c-0.4-1.1,0.4-2.1,0.4-2.1h5.2l3.5,4L-444.9,290.6L-444.9,290.6z M-423,290.6h-7.5h0h-7.5c-1.6,0-2.8-1.3-2.8-2.8h10.3h0h10.3
		C-420.2,289.3-421.4,290.6-423,290.6z M-422.3,285.8h-8.2h0h-8.2c-1.7,0-3.1-2.1-3.1-4.7h11.2h0h11.2
		C-419.3,283.7-420.6,285.8-422.3,285.8z M-409.4,288.6c-0.1,0.2-0.2,0.3-0.3,0.5c-0.1,0.2-0.3,0.3-0.5,0.5c-0.4,0.3-1,0.6-1.9,0.9
		l-3.1,0h-0.5h-0.5h-2.4l3.5-4h5.2C-409.8,286.6-409,287.6-409.4,288.6z M-410.7,283.1c-1.5,0-6.4,0.4-6.4-1.2s4.9-4.4,6.4-4.4
		c1.5,0,2.7,1.3,2.7,2.8C-408,281.9-409.2,283.1-410.7,283.1z"/>
</g>
</svg>
