<?xml version="1.0" encoding="utf-8"?>
<!-- Generator: Adobe Illustrator 19.0.0, SVG Export Plug-In . SVG Version: 6.00 Build 0)  -->
<svg version="1.1" xmlns="http://www.w3.org/2000/svg" xmlns:xlink="http://www.w3.org/1999/xlink" x="0px" y="0px"
	 viewBox="0 0 241.4 244.7" style="enable-background:new 0 0 241.4 244.7;" xml:space="preserve">
<style type="text/css">
	.st0{display:none;}
	.st1{fill:#C9C9C9;}
	.st2{fill:none;stroke:#C9C9C9;stroke-width:5;stroke-miterlimit:10;}
	.st3{font-family:'MyriadPro-Bold';}
	.st4{font-size:144.5343px;}
	.st5{fill:#FCFCFC;}
	.st6{font-size:32.4782px;}
</style>
<g id="Layer_1" class="st0">
	
		<image style="display:inline;overflow:visible;opacity:0.49;" width="41" height="42" id="XMLID_1_" xlink:href="F516D793.jpg"  transform="matrix(5.8223 0 0 5.8223 2.669 0)">
	</image>
</g>
<g id="Layer_2">
	<rect id="XMLID_2_" x="2.7" class="st1" width="56.2" height="56"/>
	<rect id="XMLID_4_" x="93.7" class="st1" width="56.2" height="56"/>
	<rect id="XMLID_5_" x="185.2" y="0.2" class="st1" width="56.2" height="56"/>
	<path id="XMLID_3_" class="st2" d="M14.8,67.2c0,0-4.7,29.4,19.1,29.8s80.5-11.2,84.1,23.8h3.6h4c0,0-8-34.9,82.4-26.8
		c0,0,21.3,1.3,22-24.4"/>
	<text id="XMLID_6_" transform="matrix(1 0 0 1 81.5074 244.7329)" class="st1 st3 st4">£</text>
	<text id="XMLID_7_" transform="matrix(1 0 0 1 21.6033 37.8215)" class="st5 st3 st6">£</text>
	<text id="XMLID_9_" transform="matrix(1 0 0 1 111.0223 37.0347)" class="st5 st3 st6">£</text>
	<text id="XMLID_10_" transform="matrix(1 0 0 1 203.8747 37.297)" class="st5 st3 st6">£</text>
</g>
</svg>
