<?xml version="1.0" encoding="utf-8"?>
<!-- Generator: Adobe Illustrator 19.0.0, SVG Export Plug-In . SVG Version: 6.00 Build 0)  -->
<svg version="1.1" id="Capa_1" xmlns="http://www.w3.org/2000/svg" xmlns:xlink="http://www.w3.org/1999/xlink" x="0px" y="0px"
	 viewBox="-223 25 512 512" style="enable-background:new -223 25 512 512;" xml:space="preserve">
<style type="text/css">
	.st0{fill:#C9C9C9;}
</style>
<g>
	<g>
		<g>
			<path class="st0" d="M140.9,67.6c-0.8,0-1.7-0.1-2.5-0.4c-3.9-1.4-5.9-5.7-4.5-9.6l9.9-27.6c1.4-3.9,5.7-5.9,9.6-4.5
				c3.9,1.4,5.9,5.7,4.5,9.6L148,62.7C146.9,65.7,144,67.6,140.9,67.6L140.9,67.6z"/>
		</g>
		<g>
			<g>
				<path class="st0" d="M11.8,537c-0.6,0-1.3-0.1-1.9-0.3c-4-1.1-6.4-5.2-5.3-9.2l78-291c1.1-4,5.2-6.4,9.2-5.3
					c4,1.1,6.4,5.2,5.3,9.2l-78,291C18.1,534.8,15.1,537,11.8,537L11.8,537z"/>
			</g>
			<g>
				<path class="st0" d="M276.4,243.1c1.2-86.5-57.3-163-140.5-184.3C54.1,37.8-32.7,75-74.2,149.2L276.4,243.1z"/>
				<path class="st0" d="M135.9,58.8c-20.3-5.2-40.9-6.8-61-5.2c10.4,0.8,20.7,2.6,31,5.2c80.6,20.7,138,93.2,140.4,176.3l30.1,8.1
					C277.5,156.6,219.1,80.1,135.9,58.8z"/>
				<path class="st0" d="M162.2,250.9l-2.7-39.1l116.8,31.3l-21.8,32.5c-2.4,3.5-6.8,5.2-10.9,4.1l-74.1-19.8
					C165.4,258.8,162.5,255.2,162.2,250.9L162.2,250.9z"/>
				<path class="st0" d="M222.7,269.6c-1,1.5-2.4,2.7-4,3.4l24.9,6.7c4.1,1.1,8.5-0.5,10.9-4.1l21.8-32.5l-30.1-8.1L222.7,269.6z"/>
				<path class="st0" d="M45.3,219.6l-2.7-39.1l116.8,31.3l-21.8,32.5c-2.4,3.5-6.8,5.2-10.9,4.1l-74.1-19.8
					C48.6,227.5,45.6,223.9,45.3,219.6L45.3,219.6z"/>
				<path class="st0" d="M-71.5,188.3l-2.7-39.1l116.8,31.3L20.8,213c-2.4,3.5-6.8,5.2-10.9,4.1l-74.1-19.8
					C-68.3,196.2-71.2,192.5-71.5,188.3L-71.5,188.3z"/>
				<path class="st0" d="M165.4,125.9c-0.8-22.1-3.3-42.1-6.4-59.5c-7.5-3-15.2-5.6-23.1-7.6c-4.9-1.3-9.9-2.3-14.8-3.2
					c-12.9,12.8-27.4,29.5-41.3,50.3c-18.4,27.6-29.9,53.8-37.1,74.6l46.9,12.6l70,18.7C163.6,188.2,166.6,159.1,165.4,125.9
					L165.4,125.9z"/>
				<path class="st0" d="M121.1,55.6c-1.9,1.9-3.8,3.8-5.7,5.9c16.7,5.2,32.2,12.7,46.4,22.1c-0.8-6-1.8-11.7-2.8-17.2
					c-5.8-2.3-11.8-4.4-17.8-6.1C134.6,58.3,127.8,56.8,121.1,55.6L121.1,55.6z"/>
			</g>
		</g>
		<g>
			<g>
				<path class="st0" d="M-141.8,529.5c-2.1,0-4.2-0.4-6.2-1.4c-7.5-3.4-10.9-12.3-7.4-19.9l30-65.9c3.4-7.5,12.3-10.9,19.9-7.4
					s10.9,12.3,7.4,19.9l-30,65.9C-130.6,526.2-136.1,529.5-141.8,529.5z"/>
			</g>
			<g>
				<path class="st0" d="M167,529.5c2.1,0,4.2-0.4,6.2-1.4c7.5-3.4,10.9-12.3,7.4-19.9l-30-65.9c-3.4-7.5-12.3-10.9-19.9-7.4
					c-7.5,3.4-10.9,12.3-7.4,19.9l30,65.9C155.9,526.2,161.3,529.5,167,529.5z"/>
			</g>
			<path class="st0" d="M-164.8,463.6H130c8,0,15.7-3.2,21.3-8.9l105.3-106.1c1.6-1.6,0.9-4.3-1.2-5l-23-7.7
				c-17.6-5.9-37-1.2-50,12.1L129.7,402c-3.8,3.9-8.9,6-14.3,6l-239.4-0.6c-24.1-0.1-43.7,19.4-43.7,43.5v9.6
				C-167.8,462.2-166.4,463.6-164.8,463.6L-164.8,463.6z"/>
			<path class="st0" d="M255.5,343.7l-23-7.7c-2.2-0.7-4.4-1.3-6.6-1.7L121.3,439.7c-5.6,5.7-13.3,8.9-21.3,8.9h-267.8
				c0,0.8-0.1,1.6-0.1,2.4v9.6c0,1.7,1.3,3,3,3H130c8,0,15.7-3.2,21.3-8.9l105.3-106.1C258.2,347.1,257.6,344.4,255.5,343.7
				L255.5,343.7z"/>
		</g>
	</g>
	<g>
		<path class="st0" d="M258.6,537h-461.5c-4.1,0-7.5-3.4-7.5-7.5s3.4-7.5,7.5-7.5h461.5c4.1,0,7.5,3.4,7.5,7.5S262.8,537,258.6,537z
			"/>
	</g>
</g>
</svg>
