<?xml version="1.0" encoding="utf-8"?>
<!-- Generator: Adobe Illustrator 19.0.0, SVG Export Plug-In . SVG Version: 6.00 Build 0)  -->
<svg version="1.1" id="Capa_1" xmlns="http://www.w3.org/2000/svg" xmlns:xlink="http://www.w3.org/1999/xlink" x="0px" y="0px"
	 viewBox="-223 25 512 512" style="enable-background:new -223 25 512 512;" xml:space="preserve">
<style type="text/css">
	.st0{fill:#C9C9C9;}
</style>
<g>
	<g>
		<path class="st0" d="M34,133.2l-196.9,195V522c0,8.3,6.5,15,14.8,15h106.9V369.6c0-8.3,6.9-14.8,15.2-14.8H94
			c8.3,0,15,6.5,15,14.8V537h105c8.3,0,14.8-6.7,14.8-15V328.2L34,133.2z M34,324.6c-33.1,0-60-26.9-60-60s26.9-60,60-60
			c33.1,0,60,26.9,60,60C94,297.6,67.1,324.6,34,324.6z"/>
	</g>
</g>
<g>
	<g>
		<path class="st0" d="M34,234.6c-16.6,0-30,13.5-30,30c0,16.5,13.4,30,30,30s30-13.5,30-30S50.6,234.6,34,234.6z"/>
	</g>
</g>
<g>
	<g>
		<rect x="-10" y="385.2" class="st0" width="90" height="151.8"/>
	</g>
</g>
<g>
	<g>
		<path class="st0" d="M285.7,262.7C285.7,262.7,285.7,262.6,285.7,262.7C280.5,249.8,149,120.9,139,110.9L65.8,37.7
			c-17-17-46.6-17-63.6,0C-8.6,48.5-214.3,249.3-219.7,262.6c0,0,0,0.1,0,0.1c-6.6,16.3-3.3,35.6,9.9,48.7c3.8,3.8,8.1,6.4,12.7,8.5
			L23.4,101.4c5.9-5.9,15.4-5.9,21.2,0l218.7,218.7c4.6-2.2,8.9-5,12.5-8.7C289,298.2,292.3,278.9,285.7,262.7z"/>
	</g>
</g>
<g>
	<g>
		<path class="st0" d="M214,55.2h-60c-8,0-14.3,5.7-14.8,13.5l89.6,89.8V69.6C228.8,61.3,222.3,55.2,214,55.2z"/>
	</g>
</g>
</svg>
