<?xml version="1.0" encoding="iso-8859-1"?>
<!-- Generator: Adobe Illustrator 19.0.0, SVG Export Plug-In . SVG Version: 6.00 Build 0)  -->
<svg version="1.1" baseProfile="tiny" id="Layer_1" xmlns="http://www.w3.org/2000/svg" xmlns:xlink="http://www.w3.org/1999/xlink"
	 x="0px" y="0px" viewBox="0 0 235 45" xml:space="preserve">
<g id="XMLID_4481_">
	<g id="XMLID_4484_">
		<polygon id="XMLID_4500_" fill="#2D2D2D" points="84.52,9.173 81.044,9.173 81.044,37.489 99.238,37.489 99.238,34.186 
			84.52,34.186 		"/>
		<path id="XMLID_4497_" fill="#2D2D2D" d="M109.917,15.437c-3.953,0-10.582,1.454-10.582,11.194s6.629,11.194,10.582,11.194
			c3.953,0,10.582-1.454,10.582-11.194S113.871,15.437,109.917,15.437z M109.917,34.606c-4.849,0-7.107-2.534-7.107-7.976
			s2.258-7.976,7.107-7.976c4.849,0,7.109,2.534,7.109,7.976S114.768,34.606,109.917,34.606z"/>
		<path id="XMLID_4494_" fill="#2D2D2D" d="M130.166,15.479c-2.834,0-5.207,0.628-6.369,1l-0.457,0.147v3.345l0.862-0.251
			c0.759-0.222,3.068-0.896,5.833-0.896c4.081,0,6.051,1.556,6.297,5.019c-0.888-0.135-2.287-0.291-4.374-0.291
			c-2.534,0-10.801,0.522-10.801,7.242c0,5.154,4.902,6.991,9.491,6.991c2.164,0,9.228-0.498,9.228-6.907v-6.223
			C139.876,18.566,136.609,15.479,130.166,15.479z M130.648,34.606c-2.248,0-6.016-0.496-6.016-3.813
			c0-3.63,4.939-4.024,7.064-4.024c2.205,0,3.825,0.173,4.705,0.289v3.819C136.399,33.96,133.272,34.606,130.648,34.606z"/>
		<path id="XMLID_4493_" fill="#2D2D2D" d="M151.387,15.437c-4.602,0-8.356,1.731-9.397,2.262l-0.355,0.181v19.611h3.475V19.929
			c2.079-0.734,4.115-1.105,6.059-1.105c4.945,0,5.579,2.533,5.579,4.739v13.927h3.518V23.563
			C160.265,18.323,157.112,15.437,151.387,15.437z"/>
		<polygon id="XMLID_4492_" fill="#2D2D2D" points="178.821,9.173 154.905,9.173 154.905,12.475 165.125,12.475 165.125,37.489 
			168.644,37.489 168.644,12.475 178.821,12.475 		"/>
		<path id="XMLID_4491_" fill="#2D2D2D" d="M188.168,28.524c0,4.094-1.954,6.083-5.973,6.083c-4.074,0-5.971-1.932-5.971-6.083
			V15.816h-3.518v12.581c0,5.966,3.459,9.388,9.489,9.388c6.032,0,9.489-3.422,9.489-9.388V15.816h-3.518v12.707H188.168z"/>
		<path id="XMLID_4488_" fill="#2D2D2D" d="M202.481,15.437c-1.768,0-3.623,0.267-5.318,0.761V7.911h-3.518v22.925
			c0,1.168,0.441,6.991,9.141,6.991c3.772,0,10.101-1.476,10.101-11.362C212.888,17.35,207.229,15.437,202.481,15.437z
			 M202.787,34.606c-3.573,0-5.623-1.344-5.623-3.687V19.623c1.62-0.597,3.491-0.925,5.318-0.925c4.829,0,6.888,2.322,6.888,7.765
			C209.37,33.763,205.612,34.606,202.787,34.606z"/>
		<path id="XMLID_4485_" fill="#2D2D2D" d="M223.859,15.479c-9.374,0-10.102,8.858-10.102,11.572
			c0,9.337,6.712,10.732,10.713,10.732c2.704,0,5.454-0.51,7.357-1.363l0.386-0.173v-3.641l-0.99,0.523
			c-1.597,0.846-4.056,1.351-6.579,1.351c-5.995,0-7.19-5.648-7.249-5.989h15.548l0.664,0.05v-0.643
			c0.012-0.082,0.046-0.32,0.046-1.142C233.655,24.112,232.948,15.479,223.859,15.479z M217.361,25.358
			c0.377-4.393,2.516-6.62,6.364-6.62c5.318,0,6.202,4.66,6.341,6.62H217.361z"/>
	</g>
	<path id="XMLID_4483_" fill="#C60029" d="M44.206,28.931c-0.519,1.631-1.219,3.205-2.116,4.656c-1.732,2.9-4.175,5.409-7.142,7.249
		c-0.871,0.554-1.791,1.045-2.763,1.476C19.237,48.064,3.607,40.277,0.992,26.783C-1.739,12.567,11.378-0.711,26.329,1.678
		c-2.967,1.842-5.442,4.349-7.206,7.298C14.084,10.248,9.788,13.99,8.394,19.45c-1.484,5.838,1.08,12.126,6.323,15.413
		c8.66,5.417,19.883,0.71,22.509-8.097c0.425-1.426,1.842-2.384,3.395-2.418C43.119,24.296,44.922,26.619,44.206,28.931z"/>
	<path id="XMLID_4482_" fill="#C60029" d="M20.253,16.069c0.519-1.631,1.219-3.205,2.116-4.656c1.732-2.9,4.175-5.409,7.142-7.249
		c0.871-0.554,1.791-1.045,2.763-1.476c12.949-5.753,28.578,2.035,31.193,15.529c2.731,14.216-10.387,27.494-25.337,25.105
		c2.967-1.842,5.442-4.349,7.206-7.298c5.039-1.272,9.335-5.014,10.729-10.474c1.484-5.838-1.08-12.126-6.323-15.413
		c-8.66-5.417-19.883-0.71-22.509,8.097c-0.425,1.426-1.842,2.384-3.395,2.418C21.34,20.704,19.539,18.381,20.253,16.069z"/>
</g>
</svg>
