<?xml version="1.0" encoding="utf-8"?>
<!-- Generator: Adobe Illustrator 19.0.0, SVG Export Plug-In . SVG Version: 6.00 Build 0)  -->
<svg version="1.1" id="Layer_1" xmlns="http://www.w3.org/2000/svg" xmlns:xlink="http://www.w3.org/1999/xlink" x="0px" y="0px"
	 viewBox="0 0 109.9 143.6" style="enable-background:new 0 0 109.9 143.6;" xml:space="preserve">
<style type="text/css">
	.st0{fill:none;stroke:#C9C9C9;stroke-width:5;stroke-miterlimit:10;}
	.st1{fill:#C9C9C9;stroke:#C9C9C9;stroke-width:5;stroke-miterlimit:10;}
</style>
<g id="Layer_1_1_">
	<path id="XMLID_47_" class="st0" d="M92.1,138.8H16.2c-6.6,0-12-5.4-12-12V16.6c0-6.6,5.4-12,12-12h75.9c6.6,0,12,5.4,12,12v110.2
		C104.1,133.4,98.7,138.8,92.1,138.8z"/>
	<path id="XMLID_1_" class="st1" d="M86.2,75.9H22c-0.4,0-0.7-0.3-0.7-0.7l0,0c0-0.4,0.3-0.7,0.7-0.7h64.2c0.4,0,0.7,0.3,0.7,0.7
		l0,0C86.9,75.6,86.6,75.9,86.2,75.9z"/>
	<path id="XMLID_2_" class="st1" d="M86,107H21.8c-0.4,0-0.7-0.3-0.7-0.7l0,0c0-0.4,0.3-0.7,0.7-0.7H86c0.4,0,0.7,0.3,0.7,0.7l0,0
		C86.7,106.7,86.4,107,86,107z"/>
	<path id="XMLID_3_" class="st1" d="M86.6,46.5H22.3c-0.4,0-0.7-0.3-0.7-0.7l0,0c0-0.4,0.3-0.7,0.7-0.7h64.2c0.4,0,0.7,0.3,0.7,0.7
		l0,0C87.2,46.2,86.9,46.5,86.6,46.5z"/>
</g>
</svg>
