<?xml version="1.0" encoding="utf-8"?>
<!-- Generator: Adobe Illustrator 19.0.0, SVG Export Plug-In . SVG Version: 6.00 Build 0)  -->
<svg version="1.1" id="Layer_1" xmlns="http://www.w3.org/2000/svg" xmlns:xlink="http://www.w3.org/1999/xlink" x="0px" y="0px"
	 viewBox="0 0 115 142.3" style="enable-background:new 0 0 115 142.3;" xml:space="preserve">
<style type="text/css">
	.st0{fill:none;stroke:#C9C9C9;stroke-width:5;stroke-miterlimit:10;}
	.st1{fill:#C9C9C9;stroke:#C9C9C9;stroke-width:5;stroke-miterlimit:10;}
</style>
<g id="Layer_3">
	<path id="XMLID_54_" class="st0" d="M99.5,139H16.7c-6.6,0-12-5.4-12-12V17.4c0-6.6,5.4-12,12-12h82.8c6.6,0,12,5.4,12,12V127
		C111.5,133.6,106.1,139,99.5,139z"/>
	<path id="XMLID_57_" class="st0" d="M40.3,70.6c0,0-5.4-26,19.1-26.3c24.5-0.3,19.6,26.3,19.6,26.3"/>
	<circle id="XMLID_58_" class="st0" cx="58.3" cy="31.4" r="8.9"/>
	<path id="XMLID_60_" class="st1" d="M92.3,88H28c-0.4,0-0.7-0.3-0.7-0.7l0,0c0-0.4,0.3-0.7,0.7-0.7h64.2c0.4,0,0.7,0.3,0.7,0.7l0,0
		C92.9,87.7,92.6,88,92.3,88z"/>
	<path id="XMLID_61_" class="st1" d="M92.1,106.4H27.9c-0.4,0-0.7-0.3-0.7-0.7l0,0c0-0.4,0.3-0.7,0.7-0.7h64.2
		c0.4,0,0.7,0.3,0.7,0.7l0,0C92.8,106.1,92.5,106.4,92.1,106.4z"/>
</g>
</svg>
