<?xml version="1.0" encoding="utf-8"?>
<!-- Generator: Adobe Illustrator 19.0.0, SVG Export Plug-In . SVG Version: 6.00 Build 0)  -->
<svg version="1.1" id="Layer_1" xmlns="http://www.w3.org/2000/svg" xmlns:xlink="http://www.w3.org/1999/xlink" x="0px" y="0px"
	 viewBox="0 0 92.8 156.6" style="enable-background:new 0 0 92.8 156.6;" xml:space="preserve">
<style type="text/css">
	.st0{fill:none;stroke:#C9C9C9;stroke-width:5;stroke-miterlimit:10;}
	.st1{display:none;fill:none;stroke:#C9C9C9;stroke-width:5;stroke-miterlimit:10;}
	.st2{fill:#C9C9C9;}
	.st3{font-family:'MyriadPro-Bold';}
	.st4{font-size:48px;}
	.st5{fill:none;stroke:#C9C9C9;stroke-miterlimit:10;}
</style>
<g id="Layer_5">
	<path id="XMLID_63_" class="st0" d="M76.6,152.8h-60c-6.6,0-12-5.4-12-12v-124c0-6.6,5.4-12,12-12h60c6.6,0,12,5.4,12,12v124
		C88.6,147.4,83.2,152.8,76.6,152.8z"/>
	<path id="XMLID_67_" class="st0" d="M4.6,31.4c0,0,29.1,0.7,26.2-26.7"/>
	<path id="XMLID_68_" class="st0" d="M61.3,4.7c0,0,1.1,30.2,26.5,26.7"/>
	<path id="XMLID_69_" class="st0" d="M4.6,125.9c0,0,24-4.4,26.8,26.8"/>
	<path id="XMLID_70_" class="st0" d="M65.2,152.8c0,0-3.4-26.5,23.4-27.1"/>
	
		<image style="display:none;overflow:visible;opacity:0.56;enable-background:new    ;" width="512" height="512" id="XMLID_66_" xlink:href="173-512.png"  transform="matrix(7.050000e-002 0 0 7.050000e-002 28.5772 61.5178)">
	</image>
</g>
<g id="Layer_6">
	<line id="XMLID_72_" class="st1" x1="43" y1="74.1" x2="43" y2="88.1"/>
	<line id="XMLID_75_" class="st1" x1="40.5" y1="88.6" x2="52.5" y2="88.6"/>
	<path id="XMLID_71_" class="st1" d="M50.1,75.2c0,0,0.7-5.2-3.5-5.1S43,74.5,43,74.5"/>
	<line id="XMLID_77_" class="st1" x1="40.5" y1="81.6" x2="47.5" y2="81.6"/>
	<text transform="matrix(1 0 0 1 33.3412 92.0198)" class="st2 st3 st4">£</text>
	<text id="XMLID_65_" transform="matrix(1 0 0 1 33.3412 92.0198)" class="st5 st3 st4">£</text>
</g>
</svg>
