<?xml version="1.0" encoding="utf-8"?>
<!-- Generator: Adobe Illustrator 19.0.0, SVG Export Plug-In . SVG Version: 6.00 Build 0)  -->
<svg version="1.1" id="Layer_1" xmlns="http://www.w3.org/2000/svg" xmlns:xlink="http://www.w3.org/1999/xlink" x="0px" y="0px"
	 viewBox="-79.4 229 183.4 138.9" style="enable-background:new -79.4 229 183.4 138.9;" xml:space="preserve">
<style type="text/css">
	.st0{display:none;}
	.st1{display:inline;fill:#C9C9C9;}
	.st2{display:inline;fill:none;stroke:#C9C9C9;stroke-width:4;stroke-miterlimit:10;}
	.st3{display:inline;fill:#FFFFFF;}
	.st4{fill:none;stroke:#C9C9C9;stroke-width:8;stroke-miterlimit:10;}
	.st5{fill:#C9C9C9;}
	.st6{fill:#FFFFFF;}
</style>
<g id="Layer_1_1_" class="st0">
	
		<image style="display:inline;overflow:visible;enable-background:new    ;" width="54" height="41" id="XMLID_40_" xlink:href="793BD114.jpg"  transform="matrix(4.7779 0 0 4.7779 -1651.1649 194.6004)">
	</image>
</g>
<g id="Layer_2" class="st0">
	<polygon id="XMLID_41_" class="st1" points="-1642.1,302 -1642.1,392 -1398.1,392 -1398.1,302 -1489.6,210.8 -1579.8,301.4 	"/>
</g>
<g id="Layer_4" class="st0">
	<polyline id="XMLID_43_" class="st2" points="-1581.5,288.8 -1488.5,193.4 -1393.7,292.7 	"/>
</g>
<g id="Layer_5" class="st0">
	<polygon id="XMLID_44_" class="st1" points="-1436.1,250 -1436.1,218 -1419.1,218 -1419.1,266 	"/>
</g>
<g id="Layer_3" class="st0">
	<polygon id="XMLID_42_" class="st1" points="-1650.1,293 -1601.3,242 -1533.1,242 -1579.4,293 	"/>
</g>
<g id="Layer_6" class="st0">
	<rect id="XMLID_45_" x="-1622.9" y="318.4" class="st3" width="34.8" height="33.8"/>
	<rect id="XMLID_47_" x="-1570.8" y="319.1" class="st3" width="34.8" height="33.8"/>
	<circle id="XMLID_46_" class="st3" cx="-1487.2" cy="268.9" r="17.1"/>
	<rect id="XMLID_48_" x="-1492.2" y="319.1" class="st3" width="50.3" height="72.9"/>
	
		<image style="display:inline;overflow:visible;opacity:0.46;enable-background:new    ;" width="220" height="229" id="XMLID_50_" xlink:href="download (2).png"  transform="matrix(0.8672 0 0 0.8672 -1609.9127 193.4074)">
	</image>
</g>
<g id="Layer_10" class="st0">
	
		<image style="display:inline;overflow:visible;opacity:0.46;enable-background:new    ;" width="860" height="900" id="XMLID_187_" xlink:href="77-776975_transparent-beach-icon-png-holiday-icon-blue-png.png"  transform="matrix(0.2289 0 0 0.2289 -1099.6718 185.2765)">
	</image>
</g>
<g id="Layer_16" class="st0">
	
		<image style="display:inline;overflow:visible;opacity:0.53;enable-background:new    ;" width="640" height="640" id="XMLID_274_" xlink:href="pngtree-vector-car-icon-png-image_515825.jpg"  transform="matrix(0.4979 0 0 0.4979 -658.1535 121.9231)">
	</image>
</g>
<g id="Layer_19" class="st0">
	
		<image style="display:inline;overflow:visible;opacity:0.49;enable-background:new    ;" width="200" height="200" id="XMLID_322_" xlink:href="2630472-200.png"  transform="matrix(1.135 0 0 1.135 -100.6684 167.7439)">
	</image>
</g>
<g id="Layer_20">
	<ellipse id="XMLID_27_" class="st4" cx="-26.2" cy="314.9" rx="48.2" ry="47.6"/>
	<path id="XMLID_29_" class="st4" d="M12.3,286.2c-6.1,8-9.7,17.9-9.7,28.7c0,26.3,21.6,47.6,48.2,47.6s48.2-21.3,48.2-47.6
		s-21.6-47.6-48.2-47.6C35.1,267.3,21.1,274.7,12.3,286.2L12.3,286.2z"/>
</g>
<g id="Layer_21">
	<polygon id="XMLID_28_" class="st5" points="-30.5,266 -48.1,247.9 -48.1,245 -40.2,231 -9.1,231 -1.1,244.2 -1.1,247 -18.6,266 	
		"/>
</g>
<g id="Layer_22">
	<polygon id="XMLID_30_" class="st6" points="-34.5,233 -41,245 -35.1,245 -33.1,233 	"/>
</g>
</svg>
